HIERARCHY
ROOT Hips
{
  OFFSET 0.110648 95.9369 -0.386028
  CHANNELS 6 Xposition Yposition Zposition Zrotation Xrotation Yrotation
  JOINT Spine
  {
    OFFSET 7.53375 0.593559 1.145e-05
    CHANNELS 6 Xposition Yposition Zposition Zrotation Xrotation Yrotation
    JOINT Spine1
    {
      OFFSET 13.0694 -0.00893387 0
      CHANNELS 6 Xposition Yposition Zposition Zrotation Xrotation Yrotation
      JOINT Spine2
      {
        OFFSET 12.2366 0.00169269 0
        CHANNELS 6 Xposition Yposition Zposition Zrotation Xrotation Yrotation
        JOINT LeftShoulder
        {
          OFFSET 17.6513 -6.97471 7.17943
          CHANNELS 6 Xposition Yposition Zposition Zrotation Xrotation Yrotation
          JOINT LeftArm
          {
            OFFSET 13.2157 0 -0.0117278
            CHANNELS 6 Xposition Yposition Zposition Zrotation Xrotation Yrotation
            JOINT LeftForeArm
            {
              OFFSET 29.1075 0 -1.32486e-05
              CHANNELS 6 Xposition Yposition Zposition Zrotation Xrotation Yrotation
              JOINT LeftHand
              {
                OFFSET 27.7712 0.000502799 0.00134653
                CHANNELS 6 Xposition Yposition Zposition Zrotation Xrotation Yrotation
                End Site
                {
                  OFFSET 0 0 0
                }
              }
            }
          }
        }
        JOINT Neck
        {
          OFFSET 22.546 -3.80889 -0.114521
          CHANNELS 6 Xposition Yposition Zposition Zrotation Xrotation Yrotation
          JOINT Head
          {
            OFFSET 12.1556 3.6551e-05 7.61851e-05
            CHANNELS 6 Xposition Yposition Zposition Zrotation Xrotation Yrotation
            End Site
            {
              OFFSET 0 0 0
            }
          }
        }
        JOINT RightShoulder
        {
          OFFSET 17.6513 -6.9749 -7.40851
          CHANNELS 6 Xposition Yposition Zposition Zrotation Xrotation Yrotation
          JOINT RightArm
          {
            OFFSET 13.2238 0.00312747 0.0039588
            CHANNELS 6 Xposition Yposition Zposition Zrotation Xrotation Yrotation
            JOINT RightForeArm
            {
              OFFSET 29.1068 -0.00498229 -0.0273782
              CHANNELS 6 Xposition Yposition Zposition Zrotation Xrotation Yrotation
              JOINT RightHand
              {
                OFFSET 27.7729 -0.00472006 0.000778947
                CHANNELS 6 Xposition Yposition Zposition Zrotation Xrotation Yrotation
                End Site
                {
                  OFFSET 0 0 0
                }
              }
            }
          }
        }
      }
    }
  }
  JOINT LeftUpLeg
  {
    OFFSET -1.6965 -0.234716 9.46757
    CHANNELS 6 Xposition Yposition Zposition Zrotation Xrotation Yrotation
    JOINT LeftLeg
    {
      OFFSET 40.0569 -0.000396311 -0.000206028
      CHANNELS 6 Xposition Yposition Zposition Zrotation Xrotation Yrotation
      JOINT LeftFoot
      {
        OFFSET 48.9977 0.000247179 0
        CHANNELS 6 Xposition Yposition Zposition Zrotation Xrotation Yrotation
        JOINT LeftToe
        {
          OFFSET 11.2727 22.9777 -3.59808e-05
          CHANNELS 6 Xposition Yposition Zposition Zrotation Xrotation Yrotation
          End Site
          {
            OFFSET 0 0 0
          }
        }
      }
    }
  }
  JOINT RightUpLeg
  {
    OFFSET -1.69651 -0.23477 -9.69672
    CHANNELS 6 Xposition Yposition Zposition Zrotation Xrotation Yrotation
    JOINT RightLeg
    {
      OFFSET 40.057 0.000411637 0
      CHANNELS 6 Xposition Yposition Zposition Zrotation Xrotation Yrotation
      JOINT RightFoot
      {
        OFFSET 48.9978 0.00177447 -3.04411e-05
        CHANNELS 6 Xposition Yposition Zposition Zrotation Xrotation Yrotation
        JOINT RightToe
        {
          OFFSET 11.2726 22.9778 0.000332871
          CHANNELS 6 Xposition Yposition Zposition Zrotation Xrotation Yrotation
          End Site
          {
            OFFSET 0 0 0
          }
        }
      }
    }
  }
}
MOTION
Frames:	8
Frame Time:	0.0333333
0.110648 95.9369 -0.386028 66.9564 80.068 23.5582 7.53374 0.593558 1.01944e-05 7.91316 4.54362 -0.416217 13.0694 -0.00893353 -7.86439e-06 8.33848 9.09971 -0.225448 12.2366 0.00169269 6.4926e-06 0.0881613 0.000824499 5.1537e-05 17.6513 -6.97472 7.17943 -172.033 -8.49838 -90.0006 13.2157 -2.69194e-06 -0.0117222 26.2698 13.017 70.1401 29.1075 -1.30255e-06 -2.93942e-06 -31.5022 18.6543 11.0856 27.7712 0.000504558 0.00134612 -0.952196 -60.9432 -0.966962 22.546 -3.8089 -0.114519 25.1502 -4.98273 0.745787 12.1557 -3.33487e-06 7.57949e-05 -31.2453 -0.00201493 1.3298 17.6513 -6.9749 -7.40851 -172.032 -6.4297 90.0005 13.2238 0.00312703 0.00395055 -6.22064 35.8723 -63.3527 29.1068 0.000112064 1.66064e-06 -31.4511 -23.3729 -13.5792 27.7729 -0.00473726 0.000785401 30.5302 80.8024 -22.1179 -1.69651 -0.234717 9.46756 -24.2706 18.2147 -174.186 40.0568 5.57553e-05 5.13885e-07 -12.4641 -4.89305e-05 3.95971e-05 48.9977 0.000237507 4.60551e-07 2.07766 -0.446848 2.75085 11.2727 22.9777 -3.54852e-05 90 -0.000160878 0.000163113 -1.6965 -0.234768 -9.6967 25.2092 -2.63564 171.869 40.0571 0.000392434 -1.39791e-06 -22.5015 0.00049506 -0.00191067 48.9978 0.00177895 -2.21831e-05 16.15 -1.52826 7.90867 11.2726 22.9778 0.00033201 89.9999 0.00160872 0.000189335 
0.60268 95.5652 5.86398 63.7329 80.2951 27.0158 7.53374 0.593558 1.01944e-05 8.30232 4.38049 -0.571753 13.0694 -0.00893353 -7.86439e-06 9.13295 8.79148 -0.588258 12.2366 0.00169269 6.4926e-06 0.0881613 0.000824499 5.1537e-05 17.6513 -6.97472 7.17943 -172.046 -8.25807 -90.1315 13.2157 -2.69194e-06 -0.0117222 25.9273 12.6815 70.7266 29.1075 -1.30255e-06 -2.93942e-06 -29.5506 18.6515 10.2718 27.7712 0.000504558 0.00134612 -2.04499 -60.676 -3.43951 22.546 -3.8089 -0.114519 24.4827 -4.89673 0.969504 12.1557 -3.33487e-06 7.57949e-05 -31.5878 0.223857 1.42096 17.6513 -6.9749 -7.40851 -172.023 -6.03325 90.1954 13.2238 0.00312703 0.00395055 -8.68668 38.3788 -61.9356 29.1068 0.000112064 1.66064e-06 -31.3537 -22.7319 -13.2524 27.7729 -0.00473726 0.000785401 34.1913 82.2423 -28.0058 -1.69651 -0.234717 9.46756 -26.7541 17.7329 -173.709 40.0568 5.57553e-05 5.13885e-07 -20.4543 0.000203226 -0.00108161 48.9977 0.000237507 4.60551e-07 3.20123 -0.539571 2.73283 11.2727 22.9777 -3.54852e-05 90 -0.000167275 0.000167087 -1.6965 -0.234768 -9.6967 26.2544 -3.40769 170.785 40.0571 0.000392434 -1.39791e-06 -26.224 0.000604697 -0.00198809 48.9978 0.00177895 -2.21831e-05 0.89649 -4.13194 7.74522 11.2726 22.9778 0.00033201 89.9999 0.0016165 0.000191306 
1.09471 95.1934 12.114 56.0651 80.7663 34.829 7.53374 0.593558 1.01944e-05 9.03879 4.00085 -0.770291 13.0694 -0.00893353 -7.86439e-06 10.6249 8.04993 -1.08432 12.2366 0.00169269 6.4926e-06 0.0881613 0.000824499 5.1537e-05 17.6513 -6.97472 7.17943 -172.064 -7.56148 -90.374 13.2157 -2.69194e-06 -0.0117222 25.0822 11.676 71.844 29.1075 -1.30255e-06 -2.93942e-06 -27.5711 18.0332 9.17747 27.7712 0.000504558 0.00134612 -3.88231 -60.2332 -6.5482 22.546 -3.8089 -0.114519 23.1903 -4.63017 1.4363 12.1557 -3.33487e-06 7.57949e-05 -31.9309 0.448638 1.51484 17.6513 -6.9749 -7.40851 -172.016 -5.63679 90.3902 13.2238 0.00312703 0.00395055 -11.3844 40.8786 -60.3327 29.1068 0.000112064 1.66064e-06 -31.9089 -21.941 -13.0969 27.7729 -0.00473726 0.000785401 43.218 84.013 -41.1618 -1.69651 -0.234717 9.46756 -27.8295 16.6532 -173.409 40.0568 5.57553e-05 5.13885e-07 -30.4574 0.000482833 -0.00185418 48.9977 0.000237507 4.60551e-07 3.60742 -0.743343 2.25945 11.2727 22.9777 -3.54852e-05 90 -0.00016421 0.000167784 -1.6965 -0.234768 -9.6967 29.7126 -5.07728 170.153 40.0571 0.000392434 -1.39791e-06 -27.122 0.000604923 -0.00199488 48.9978 0.00177895 -2.21831e-05 -14.2976 -5.98628 6.9589 11.2726 22.9778 0.00033201 89.9999 0.00160879 0.000190505 
1.60608 95.1658 18.364 47.2868 81.2623 43.7712 7.53374 0.593558 1.01944e-05 9.52739 3.49089 -0.926199 13.0694 -0.00893353 -7.86439e-06 11.6104 7.04373 -1.4822 12.2366 0.00169269 6.4926e-06 0.0881613 0.000824499 5.1537e-05 17.6513 -6.97472 7.17943 -172.06 -6.44547 -90.5033 13.2157 -2.69194e-06 -0.0117222 23.8395 9.94842 73.0805 29.1075 -1.30255e-06 -2.93942e-06 -25.6056 16.744 7.85805 27.7712 0.000504558 0.00134612 -5.29729 -59.79 -9.20959 22.546 -3.8089 -0.114519 22.8826 -4.16083 1.87614 12.1557 -3.33487e-06 7.57949e-05 -32.1194 0.677106 1.54269 17.6513 -6.9749 -7.40851 -172.016 -5.18258 90.4787 13.2238 0.00312703 0.00395055 -12.158 41.6493 -60.0315 29.1068 0.000112064 1.66064e-06 -33.5231 -21.3247 -13.5441 27.7729 -0.00473726 0.000785401 47.5748 84.5731 -50.009 -1.69651 -0.234717 9.46756 -26.0802 15.6525 -174.011 40.0568 5.57553e-05 5.13885e-07 -36.1023 0.000830138 -0.00236223 48.9977 0.000237507 4.60551e-07 5.50076 -0.761776 1.7601 11.2727 22.9777 -3.54852e-05 90 -0.000160733 0.000167167 -1.6965 -0.234768 -9.6967 30.8128 -6.63112 169.417 40.0571 0.000392434 -1.39791e-06 -31.725 0.000797228 -0.00228703 48.9978 0.00177895 -2.21831e-05 -25.4664 -7.5255 6.10289 11.2726 22.9778 0.00033201 89.9999 0.00161288 0.000193583 
2.20888 96.0375 24.614 37.5966 81.9829 53.681 7.53374 0.593558 1.01944e-05 9.62563 2.76653 -1.00228 13.0694 -0.00893353 -7.86439e-06 11.8013 5.60831 -1.71292 12.2366 0.00169269 6.4926e-06 0.0881613 0.000824499 5.1537e-05 17.6513 -6.97472 7.17943 -172.022 -4.92434 -90.3268 13.2157 -2.69194e-06 -0.0117222 22.3273 7.6088 74.2557 29.1075 -1.30255e-06 -2.93942e-06 -23.9704 15.054 6.58525 27.7712 0.000504558 0.00134612 -6.61765 -59.6083 -11.6906 22.546 -3.8089 -0.114519 24.3031 -3.36502 2.11668 12.1557 -3.33487e-06 7.57949e-05 -31.883 0.929359 1.43753 17.6513 -6.9749 -7.40851 -172.034 -4.70036 90.1338 13.2238 0.00312703 0.00395055 -11.8195 41.3498 -60.231 29.1068 0.000112064 1.66064e-06 -36.4033 -20.681 -14.5944 27.7729 -0.00473726 0.000785401 48.187 84.5393 -55.0229 -1.69651 -0.234717 9.46756 -21.4756 14.6309 -175.585 40.0568 5.57553e-05 5.13885e-07 -36.3447 0.0013628 -0.00306627 48.9977 0.000237507 4.60551e-07 9.14083 -0.659791 1.35113 11.2727 22.9777 -3.54852e-05 90 -0.000164775 0.00016096 -1.6965 -0.234768 -9.6967 27.2338 -7.80189 167.924 40.0571 0.000392434 -1.39791e-06 -43.4805 0.00144712 -0.00309066 48.9978 0.00177895 -2.21831e-05 -29.6548 -8.90933 5.47699 11.2726 22.9778 0.00033201 89.9999 0.00161033 0.000191029 
2.74804 97.2324 30.864 25.2519 82.6581 66.2423 7.53374 0.593558 1.01944e-05 9.63525 1.83322 -1.05631 13.0694 -0.00893353 -7.86439e-06 11.8078 3.75648 -1.91523 12.2366 0.00169269 6.4926e-06 0.0881613 0.000824499 5.1537e-05 17.6513 -6.97472 7.17943 -171.978 -3.11973 -89.91 13.2157 -2.69194e-06 -0.0117222 20.6982 4.81934 75.0328 29.1075 -1.30255e-06 -2.93942e-06 -23.0224 13.2481 5.55962 27.7712 0.000504558 0.00134612 -7.91411 -60.0933 -14.0731 22.546 -3.8089 -0.114519 26.0718 -2.19019 2.14338 12.1557 -3.33487e-06 7.57949e-05 -31.5356 1.15872 1.17096 17.6513 -6.9749 -7.40851 -172.06 -4.228 89.312 13.2238 0.00312703 0.00395055 -10.8471 40.2167 -60.3148 29.1068 0.000112064 1.66064e-06 -41.3057 -19.7448 -16.5305 27.7729 -0.00473726 0.000785401 47.447 83.9613 -57.4296 -1.69651 -0.234717 9.46756 -15.0799 13.2725 -177.439 40.0568 5.57553e-05 5.13885e-07 -33.5362 0.00112035 -0.00274607 48.9977 0.000237507 4.60551e-07 12.0295 -0.592662 0.867631 11.2727 22.9777 -3.54852e-05 90 -0.00016361 0.000163407 -1.6965 -0.234768 -9.6967 21.8112 -8.68093 166.243 40.0571 0.000392434 -1.39791e-06 -55.7408 0.00227065 -0.00373959 48.9978 0.00177895 -2.21831e-05 -27.6954 -9.51828 5.66096 11.2726 22.9778 0.00033201 89.9999 0.00160987 0.000192148 
3.07718 98.1734 37.114 11.7883 82.9317 79.9009 7.53374 0.593558 1.01944e-05 9.61286 0.735482 -1.13883 13.0694 -0.00893353 -7.86439e-06 11.7457 1.58101 -2.19077 12.2366 0.00169269 6.4926e-06 0.0881613 0.000824499 5.1537e-05 17.6513 -6.97472 7.17943 -171.96 -1.22977 -89.4148 13.2157 -2.69194e-06 -0.0117222 18.8612 1.46857 75.427 29.1075 -1.30255e-06 -2.93942e-06 -22.5447 11.5286 4.73924 27.7712 0.000504558 0.00134612 -9.25113 -60.9664 -16.229 22.546 -3.8089 -0.114519 27.4647 -0.502166 1.88387 12.1557 -3.33487e-06 7.57949e-05 -31.4342 1.33893 0.693715 17.6513 -6.9749 -7.40851 -172.076 -3.7199 88.3315 13.2238 0.00312703 0.00395055 -8.67872 37.638 -60.4937 29.1068 0.000112064 1.66064e-06 -46.8655 -18.6523 -18.8086 27.7729 -0.00473726 0.000785401 43.6761 83.0084 -56.1518 -1.69651 -0.234717 9.46756 -8.42802 11.7256 -178.991 40.0568 5.57553e-05 5.13885e-07 -29.5166 -0.000334938 -0.00030236 48.9977 0.000237507 4.60551e-07 14.1339 -0.579101 0.381298 11.2727 22.9777 -3.54852e-05 90 -0.000163397 0.000163089 -1.6965 -0.234768 -9.6967 14.6578 -8.86447 164.837 40.0571 0.000392434 -1.39791e-06 -63.7658 0.00289824 -0.00406861 48.9978 0.00177895 -2.21831e-05 -22.4996 -8.57502 6.96448 11.2726 22.9778 0.00033201 89.9999 0.00160565 0.000190706 
3.20676 98.7886 43.364 -1.89124 82.9446 93.7255 7.53374 0.593558 1.01944e-05 9.54696 -0.35382 -1.20252 13.0694 -0.00893353 -7.86439e-06 11.593 -0.578566 -2.43012 12.2366 0.00169269 6.4926e-06 0.0881613 0.000824499 5.1537e-05 17.6513 -6.97472 7.17943 -171.975 0.546839 -89.0008 13.2157 -2.69194e-06 -0.0117222 16.7301 -2.53918 75.3357 29.1075 -1.30255e-06 -2.93942e-06 -22.4664 10.1983 4.18272 27.7712 0.000504558 0.00134612 -10.4187 -61.8631 -17.7693 22.546 -3.8089 -0.114519 28.4023 1.14874 1.53387 12.1557 -3.33487e-06 7.57949e-05 -31.4692 1.43049 0.150348 17.6513 -6.9749 -7.40851 -172.068 -3.13044 87.5103 13.2238 0.00312703 0.00395055 -4.86637 32.7701 -60.189 29.1068 0.000112064 1.66064e-06 -52.4464 -17.5602 -21.4233 27.7729 -0.00473726 0.000785401 36.7748 81.7082 -51.2681 -1.69651 -0.234717 9.46756 -1.5927 9.97143 179.925 40.0568 5.57553e-05 5.13885e-07 -24.4986 0.000476882 -0.00172334 48.9977 0.000237507 4.60551e-07 15.6678 -0.612294 -0.210945 11.2727 22.9777 -3.54852e-05 90 -0.000165629 0.000161876 -1.6965 -0.234768 -9.6967 5.65331 -8.20828 163.791 40.0571 0.000392434 -1.39791e-06 -72.2565 0.0036063 -0.00430494 48.9978 0.00177895 -2.21831e-05 -14.2438 -6.56885 8.36311 11.2726 22.9778 0.00033201 89.9999 0.00161003 0.000186758 
